<svg xmlns="http://www.w3.org/2000/svg" xmlns:xlink="http://www.w3.org/1999/xlink" width="1920" height="1080" viewBox="0 0 1920 1080">
  <defs>
    <linearGradient id="linear-gradient" x1="0.5" x2="0.5" y2="1" gradientUnits="objectBoundingBox">
      <stop offset="0" stop-color="#1db2d9"/>
      <stop offset="1" stop-color="#80d0c7"/>
    </linearGradient>
    <filter id="長方形_11" x="520" y="466" width="402" height="372" filterUnits="userSpaceOnUse">
      <feOffset dy="3" input="SourceAlpha"/>
      <feGaussianBlur stdDeviation="3" result="blur"/>
      <feFlood flood-opacity="0.161"/>
      <feComposite operator="in" in2="blur"/>
      <feComposite in="SourceGraphic"/>
    </filter>
    <filter id="長方形_9" x="326.5" y="839.5" width="300" height="289" filterUnits="userSpaceOnUse">
      <feOffset dy="3" input="SourceAlpha"/>
      <feGaussianBlur stdDeviation="3" result="blur-2"/>
      <feFlood flood-opacity="0.161"/>
      <feComposite operator="in" in2="blur-2"/>
      <feComposite in="SourceGraphic"/>
    </filter>
    <filter id="長方形_10" x="131" y="131" width="384" height="707" filterUnits="userSpaceOnUse">
      <feOffset dy="3" input="SourceAlpha"/>
      <feGaussianBlur stdDeviation="3" result="blur-3"/>
      <feFlood flood-opacity="0.161"/>
      <feComposite operator="in" in2="blur-3"/>
      <feComposite in="SourceGraphic"/>
    </filter>
    <clipPath id="clip-サインイン画面">
      <rect width="1920" height="1080"/>
    </clipPath>
  </defs>
  <g id="サインイン画面" clip-path="url(#clip-サインイン画面)">
    <rect width="1920" height="1080" fill="#fff"/>
    <path id="パス_2" data-name="パス 2" d="M1919.085,438.886S1928.269,457,1814.04,337.023c-73.906-77.623-133.651,53.01-208.808,136.289-30.843,34.176-53.628,51.405-78.289,65.182-7.688,4.295-59.473,31.774-61.624,33.8-40.445,13.7-106.61,38.6-324.159-16.635s86.875-143.319-18.45-302.443S829.627,400.6,635.772,352.9,960,0,960,0h959.085" fill="url(#linear-gradient)"/>
    <g transform="matrix(1, 0, 0, 1, 0, 0)" filter="url(#長方形_11)">
      <rect id="長方形_11-2" data-name="長方形 11" width="384" height="354" transform="translate(529 472)" fill="#f1bf2b"/>
    </g>
    <g transform="matrix(1, 0, 0, 1, 0, 0)" filter="url(#長方形_9)">
      <rect id="長方形_9-2" data-name="長方形 9" width="271" height="282" transform="translate(617.5 845.5) rotate(90)" fill="#f05e3e"/>
    </g>
    <g transform="matrix(1, 0, 0, 1, 0, 0)" filter="url(#長方形_10)">
      <rect id="長方形_10-2" data-name="長方形 10" width="366" height="689" transform="translate(140 137)" fill="#1db2d9"/>
    </g>
  </g>
</svg>
